<svg width="80" height="80" viewBox="0 0 130 130" fill="none" xmlns="http://www.w3.org/2000/svg">
<g filter="url(#filter0_f)">
<circle cx="65" cy="65" r="55.5" stroke="url(#paint0_linear)" stroke-width="11"/>
</g>
<path d="M74.0938 76.8164C74.0938 74.6602 73.332 72.8438 71.8086 71.3672C70.3086 69.8906 67.7656 68.5547 64.1797 67.3594C59.1875 65.8359 55.543 63.8555 53.2461 61.418C50.9727 58.957 49.8359 55.8398 49.8359 52.0664C49.8359 48.2227 50.9492 45.0703 53.1758 42.6094C55.4258 40.1484 58.5078 38.6836 62.4219 38.2148V30.5156H67.6602V38.25C71.5977 38.7891 74.6562 40.4414 76.8359 43.207C79.0391 45.9727 80.1406 49.7578 80.1406 54.5625H73.6719C73.6719 51.2578 72.8867 48.6328 71.3164 46.6875C69.7461 44.7422 67.625 43.7695 64.9531 43.7695C62.1641 43.7695 60.0312 44.4961 58.5547 45.9492C57.0781 47.3789 56.3398 49.3828 56.3398 51.9609C56.3398 54.3516 57.1133 56.2617 58.6602 57.6914C60.2305 59.0977 62.7969 60.3867 66.3594 61.5586C69.9453 62.707 72.7344 63.9844 74.7266 65.3906C76.7422 66.7734 78.2188 68.3906 79.1562 70.2422C80.1172 72.0938 80.5977 74.2617 80.5977 76.7461C80.5977 80.707 79.4023 83.8945 77.0117 86.3086C74.6445 88.7227 71.3164 90.1523 67.0273 90.5977V97.3125H61.8242V90.5977C57.4648 90.1992 54.043 88.6523 51.5586 85.957C49.0977 83.2383 47.8672 79.5586 47.8672 74.918H54.3711C54.3711 78.1758 55.2266 80.6836 56.9375 82.4414C58.6484 84.1992 61.0742 85.0781 64.2148 85.0781C67.2852 85.0781 69.6992 84.3398 71.457 82.8633C73.2148 81.3867 74.0938 79.3711 74.0938 76.8164Z" fill="url(#paint1_linear)"/>
<defs>
<filter id="filter0_f" x="0" y="0" width="130" height="130" filterUnits="userSpaceOnUse" color-interpolation-filters="sRGB">
<feFlood flood-opacity="0" result="BackgroundImageFix"/>
<feBlend mode="normal" in="SourceGraphic" in2="BackgroundImageFix" result="shape"/>
<feGaussianBlur stdDeviation="2" result="effect1_foregroundBlur"/>
</filter>
<linearGradient id="paint0_linear" x1="65" y1="15" x2="65" y2="115" gradientUnits="userSpaceOnUse">
<stop stop-color="#FFAC33"/>
<stop offset="1" stop-color="#DA9632" stop-opacity="0.26"/>
</linearGradient>
<linearGradient id="paint1_linear" x1="64.5" y1="23" x2="64.5" y2="107" gradientUnits="userSpaceOnUse">
<stop offset="0.28125" stop-color="#DA9632" stop-opacity="0.49"/>
<stop offset="0.692708" stop-color="#43B24A" stop-opacity="0.56"/>
</linearGradient>
</defs>
</svg>
